/* XPM */
static char *_606e51ab5444d00d3e3148c76af2b5f1ZdW8mfKs77SgE9V[] = {
/* columns rows colors chars-per-pixel */
"50 50 215 2 ",
"   c #3A2A13",
".  c #4E1D16",
"X  c #592F1F",
"o  c #5D2E24",
"O  c #4E3226",
"+  c #5D3225",
"@  c #5C3A29",
"#  c #5E332C",
"$  c #5B3C35",
"%  c #553633",
"&  c #723820",
"*  c #633F35",
"=  c #6F3F35",
"-  c #7B3D3E",
";  c #63392B",
":  c #4D4923",
">  c #514429",
",  c #5C463B",
"<  c #63433E",
"1  c #69453D",
"2  c #6C4A3E",
"3  c #784737",
"4  c #75503F",
"5  c #6C4D47",
"6  c #624541",
"7  c #754E4A",
"8  c #63544E",
"9  c #6C544E",
"0  c #6C584D",
"q  c #75524D",
"w  c #6D5A53",
"e  c #665458",
"r  c #745B53",
"t  c #795E57",
"y  c #775E5A",
"u  c #6F605B",
"i  c #7C6355",
"p  c #776058",
"a  c #7C615C",
"s  c #7F6B53",
"d  c #69576F",
"f  c #735A60",
"g  c #725E79",
"h  c #726261",
"j  c #7C6A6C",
"k  c #796965",
"l  c #7A7066",
"z  c #766970",
"x  c #7C7475",
"c  c #83452E",
"v  c #9A4F30",
"b  c #845136",
"n  c #9A5038",
"m  c #A4442C",
"M  c #A1623F",
"N  c #895946",
"B  c #9D5E49",
"V  c #935540",
"C  c #965B5D",
"Z  c #8F6646",
"A  c #99684B",
"S  c #876758",
"D  c #95675A",
"F  c #86725A",
"G  c #99765E",
"H  c #A76241",
"J  c #A06859",
"K  c #B26450",
"L  c #A8785A",
"P  c #B4755D",
"I  c #B67755",
"U  c #816964",
"Y  c #836A69",
"T  c #866764",
"R  c #936D65",
"E  c #926063",
"W  c #83726B",
"Q  c #8A776E",
"!  c #947669",
"~  c #967A6D",
"^  c #9B796C",
"/  c #977167",
"(  c #856C72",
")  c #847272",
"_  c #8C7C75",
"`  c #8D7C79",
"'  c #857877",
"]  c #957A74",
"[  c #987975",
"{  c #A57863",
"}  c #B67965",
"|  c #B77667",
" . c #A47C7D",
".. c #A57773",
"X. c #B57C78",
"o. c #C37B6D",
"O. c #B18058",
"+. c #8C837A",
"@. c #8B8177",
"#. c #958376",
"$. c #93847B",
"%. c #9E857F",
"&. c #9A8A79",
"*. c #968776",
"=. c #99937B",
"-. c #969177",
";. c #A38373",
":. c #A38C79",
">. c #A8837A",
",. c #BA8978",
"<. c #A5937C",
"1. c #B6967F",
"2. c #AB8A6B",
"3. c #8D7D80",
"4. c #987E87",
"5. c #A37E85",
"6. c #8F8A8A",
"7. c #858483",
"8. c #9D8C85",
"9. c #9A8D8B",
"0. c #938685",
"q. c #94958B",
"w. c #9B938C",
"e. c #9A9B89",
"r. c #9B9694",
"t. c #A48D88",
"y. c #B48C84",
"u. c #A49585",
"i. c #AC9384",
"p. c #A1958C",
"a. c #AB928C",
"s. c #A49A8C",
"d. c #A89A87",
"f. c #B49482",
"g. c #B88B90",
"h. c #AC9B92",
"j. c #AD9D9A",
"k. c #A49996",
"l. c #BB9E94",
"z. c #B49D9D",
"x. c #B89896",
"c. c #9CA18B",
"v. c #9BA197",
"b. c #AEA69A",
"n. c #ABAB9E",
"m. c #A8A696",
"M. c #B5A49C",
"N. c #BBA49C",
"B. c #9BA4A1",
"V. c #A7A6A7",
"C. c #B9ACA9",
"Z. c #B9A5A4",
"A. c #ADB4AA",
"S. c #B6B4A7",
"D. c #B9AEB4",
"F. c #BABAB6",
"G. c #C39786",
"H. c #C3968C",
"J. c #CB958B",
"K. c #C39B95",
"L. c #CBA495",
"P. c #C8A998",
"I. c #D0B09B",
"U. c #C2ACA5",
"Y. c #CCABA4",
"T. c #C4AEAC",
"R. c #C7A7A7",
"E. c #D1AFA5",
"W. c #C9B3A7",
"Q. c #C3ADB0",
"!. c #CBBDB9",
"~. c #C6B8B6",
"^. c #DABDBB",
"/. c #D4B6B4",
"(. c #CBC2B3",
"). c #C7C2B6",
"_. c #D5C4BC",
"`. c #DEC4B7",
"'. c #E7CABC",
"]. c #B1B8C2",
"[. c #C8B9C0",
"{. c #C9C7C7",
"}. c #D4C6C3",
"|. c #D7D5D0",
" X c #E6C9C4",
".X c #E3D6CE",
"XX c #E6DBD1",
"oX c #ECDDDC",
"OX c #F1E0CE",
"+X c #EAE7DE",
"@X c #F6EFDF",
"#X c #EEEBE3",
"$X c #EAEAE9",
"%X c #EBE7E5",
"&X c #F2EBE3",
"*X c #F3EEEC",
"=X c #F3E4E1",
"-X c #F4F2EC",
";X c #FCF2ED",
":X c #EFFBFE",
">X c #F5F5F4",
",X c #FEF6F4",
"<X c #F4FBF4",
"1X c #FDFCF5",
"2X c #F6F4FA",
"3X c #F6FCFC",
"4X c #FFFDFF",
"5X c #FCFFFF",
"6X c #FEFEFE",
"7X c #FFFEFF",
"8X c white",
"9X c #FEFFFF",
"0X c #FEFEFD",
"qX c #FEFEFE",
"wX c #FDF7FB",
/* pixels */
"8X8X8X8X8X8X8X8X8X8X8X8X8X8X8X8X8X8X8X8X8X8X8X8X8X8X8X8X8X8X8X8X8X8X8X8X8X8X8X8X8X8X8X8X8X8X8X8X8X8X",
"8X8X8X8X8X8X8X8X8X8X8X8X8X8X8X8X8X8X8X8X8X8X8X8X8X8X8X8X8X8X8X8X8X8X8X8X8X8X8X8X8X8X8X8X8X8X8X8X8X8X",
"8X8X8X8X8X8X8X8X8X8X8X8X8X8X8X8X8X8X8X8X8X8X8X8X8X8X8X8X8X8X8X8X8X8X8X8X8X8X8X8X8X8X8X8X8X8X8X8X8X8X",
"8X8X8X8X8X8X8X8X8X8X8X8X8X8X8X8X8X8X8X8X8X8X8X8X8X8X8X8X8X8X8X8X8X8X8X8X8X8X8X8X8X8X8X8X8X8X8X8X8X8X",
"8X8X8X8X8X8X8X8X8X8X8X8X8X8X8X8X8X8X8X8X8X8X8X8X8X8X8X8X8X8X8X8X8X8X8X8X8X8X8X8X8X8X8X8X8X8X8X8X8X8X",
"8X8X8X8X8X8X8X8X8X8X8X8X8X8X8X8X8X8X8X8X8X8X8X8X8X8X8X8X8X8X8X8X8X8X8X8X8X8X8X8X8X8X8X8X8X8X8X8X8X8X",
"8X8X8X8X8X8X8X8X8X8X8X8X8X8X8X8X8X8X8X8X8X8X8X8X8X8X8X8X8X8X8X8X8X8X8X8X8X8X8X8X8X8X8X8X8X8X8X8X0X0X",
"8X8X8X8X8X8X8X8X8X8X8X8X8X8X8XwX8X8X8X8X8X8X8X8X8X8X8X8X8X8X8X8X8X8X8X8X8X8X8X0X8X8X8X8X8X8X8X8X0X0X",
"8X8X8X0X0X0X0X0X0X0X0X0X0X0X0X0X8X8X0X0X0X0X8X8X8XwX0X0X0X0X0X0X0X0X0X0X0X0X0X0X0X0X0X0X0X0X0X0X0X0X",
"8X8X0X0X0X0X0X0X0X0X0X0X0X0X0X0X8X8X0X0X0X0X8X8X8X8X0X0X0X0X0X0X0X0X0X0X0X0X0X0X0X0X0X0X0X0X0X0X0X0X",
"0X0X0X0X0X0X0X0X0X0X0X0X0X0X0X0X8X8X0X0X0X0X8X8X5X5X8X0X0X0X0X0X0X0X0X0X0X0X0X0X0X0X0X0X0X0X0X0X0X0X",
"0X0X0X0X0X0X0X0X0X0X0X0X0X0X0X0X8X8X0X0X0X0X8X8X8X8X0X8X0X0X0X0X0X0X0X0X0X0X0X0X0X0X0X0X0X0X0X0X0X0X",
"0X0X0X0X0X0X0X0X0X0X0X0X0X0X0X0X8X8X0X0X0X0X8X8X0X0X0X0X0X0X0X0X0XwX0X0X0X0X0X0X0X0X0X0X0X0X0X0X0X0X",
"0X0X0X0X0X0X0X0X0X0X0X0X0X0X0X0X8X8X0X0X0X8X8X8X0X0X0X0X0X0X0X0X0X0X0X0X0X0X0X0X0X0X0X0X0X0X0X0X0X0X",
"0X0X0X0X0X0X0X0X0X0X0X0X0X0X0X0X8X8X0X0X5X8X8X8X0X0X0X0X0X0X0X0X0X0X0X0X0X0X0X0X0X0X0X0X0X0X0X0X0X0X",
"0X0X0X0X0X0X0X0X0X0X0X0X0X0X0X0X8XwX0X0X8X8X8XwX0X0X0X0X0X0X0X0X0X0X0X0X0X0X0X0X0X0X0X0X0X0X0X0X0X0X",
"5X8XwX1X5X5X5X8X0X0XwX0XwX0X0X0X5X8XwXwX8X5X8X8X8XwXwX8X8XwX8X8X8X8X8XwX8X8X8X1X8XwX0X5X3X1X8X0X0X0X",
"8X>X0X0X0X1X,X1X0X8X3X8X5X5X8XwX8X0X0X0X1X0X0X>X3X5X3X5X5X8X8X3X3X8X<X8X5X3X<X5X0X5X8XwX8X8X0X0X0X8X",
"0X0X0X3X3X,XwX1XwX8X8X3X5X5X5X0X8X8X8X5X<X3X8X8X8X0X0X0X0X0X;X#X*X1X1X1X0X0X8X5X5X5X3XwXwX0X8X0X0X0X",
"0X>X#XwX,X8X:X3X8X0X0X1X0X1X0X0X3X5X2X8X8X0XwX,XoX!.a.` Y a a a Y _ >.t.a.T.oX0XwX1X8X8X5X0XwX0X0X0X",
"1X8X_.l.E.+X0X8X3X<X8X8XwX8X8X5X3X0X,X XT.Z.t.w 6 $ % < q S R / [  ...^ R ^ ^ Q ~.;X<X8X3X5X8X0X0X0X",
"wX5X1XL.} L 1.'.1X0X8XwX0XwX3X5XOX;.D = o + * 1 r t t t t i y y Y Q >.;.f.f.<.s O 0 }.1X3X5X8X8X0X0X",
"wX0X8X;XG.P L L ;.`.,XwX8X8X,X.XG X o ; 2 5 5 q r r r w w w k j @.W ] ] ^ ! i.:.>   l p.>XwX>X8X0X0X",
"<X8XwX0X;XG.L O.v & 4 b.&X.X&.@ . # $ , 8 8 w f a y f j ) x x ' Q @.$.g.T ^ Q S : > &.9 ) ,X8X5X0X0X",
"<X8XwX8X8X`.B m b 4 4 + 2 1 $ 1 < q 5 9 h z j Y z W S A A D / *.6.r.B.i.= U f Y a ) g d e l #X8X0X0X",
"8X2X5X-X XJ.| K n c N S p a U k Y j Y ) j ' +.l _ 7.7.#.J v H O.2.:.S.R - ( z 3.@.6.x ( E C z.wX0X0X",
"wX0X@XL.} P P Z n N ^ h.e.+.@._ ` ' #.#.+.+.@.$.8.8.0.9.w.#.G M O.A F ! N 3.0.4.5. ...X.>.U.$X:X0XwX",
"8X#XK.| P } ,.I._.XX#X3X<X$X).-.=.=.<.&.8.p.8.w.r.k.6.q.V.A.Z.a.G { f.K.( v.k.R.~.W.L.L.P.&X1X8X0X0X",
"3X8XoXoX&X<X0X0X3X5X8X5X8X8X1X|.m.-.<.d.u.k.s.w.9.m.B.V.z.x.j.k.S.%.M.[.9.A.A.!.!.^.I.N.+X5X3X8X5X8X",
"3X8XwXwX8X8X5X0X<X0XwX8XwX>X5X5X1X(.d.<.d.s.d.s.a.h.j.Z.x.y.,.,.C./.C.}.j.F.{.].Z.R.U.oX0X5XwX,X8X8X",
"0X0X0X1X8X,X0X<XwX8X,X1X8X8XwX8X0X0X+X).S.S.V.b.q.e.m.b.z.g.X.o.H.H.W.{.~.S.).D.Y.}.wX8XwXwX8X3X8X8X",
"8X0X3X5X<X8X8XwX8X8X5X3X<X0X0X1X0X0X1X0X3X0X8XwX$X|.}.F.V.c.&.a.2.,.l.Q.Q.(.E. X1X0X8XwX5X5X<XwX8X8X",
"0X8X0X8X0X0X0X0X0X0X0X0X0X0X0X0X8X8X8X3X8X8X8X8X8XwX8X0X*X$X$X$X>X>X>X3X2X8X8X8X8X0X0X0X0X0X0X0X8X0X",
"8X0X0X0X0X0X0X0X0X0X0X0X0X0X0X0XwX8X0X8X8X0X3X8X0X0X8X8X8X8X8X8XwX8X8X8X0X0X8X5X0X0X0X0X0X0X0X0X0X5X",
"0X0X0X0X0X0X0X0X0X0X0X0X0X0X0X0X8X0X8X3X0X8XwX8X8X8X3X8X8X8X0X0X8X8X8X8X8X8X8X8X0X0X0X0X0X0X0X0X8X8X",
"0X0X0X0X0X0X0X0X0X0X0X0X0X0X0X0X0X8X8X8X8X0X8X8X8X8X0XwX8X8X8X3X3X5X8XwX0X0X8X0X0X0X0X0X0X0X0X0X8X8X",
"0X0X0X0X0X0X0X0X0X0X0X0X0X0X0X0X8X0X8X8X0X8X3X8X0X8X8X0X8X8X8X8X8X8X8X0X8X0X0X0X0X0X0X0X0X0X0X0X0X8X",
"0X0X0X0X0X0X0X0X0X0X0X0X0X0X0X0X0X8XwX8X8X8X8X8X8X8X8X8X0XwXwX0X0X8X8X8X8X8X0X0X0X0X0X0X0X0X0X0X8X8X",
"0X0X0X0X0X0X0X0X0X0X0X0X0X0X0X0X8X0X0X8X0X8XwX8X8X8X8X8X8X8X8X8XwX8X8X0X0X8X8X0X0X0X0X0X0X0X0X0XwX8X",
"0X0X0X0X0X0X0X0X0X0X0X0X0X0X0X0X8X3X8X8X8XwX8X0X8X0X8X3X8X8X8X3X8X8X8X8X0X0X0X0X0X0X0X0X0X0X0X0X8X8X",
"8X8X8X0X8X3X8X0X0X0X8X8X5X5X8XwX8XwX8X0X8X3X0X8X0X8X8X8X0X8X8X3X8X3X8X0X8XwX8X8X0X0X5X8XwX5X8X0X0X8X",
"0X8XwX8X8X8X0X5X0X0XwX8X8X8X8X8X0X5X8X5X8X8X8X0X8X0X8XwX8X0X8X8X8X8X0X5X8X8X0X8X0X0X8X8X8X8X3X8X8X0X",
"8X8X8X8X8X8X8X8XwX8X8X8X8X8X8X8X8X8X8X8X8X8X8X8X8X8X8X8X8X8X8X8X8X8X8X8X8X8X8X8XwX8X8X8X8X8X8X8X8X8X",
"8X8X8X8X8X8X8X8X8X8X8X8X8X8X8X8X8X8X8X8X8X8X8X8X8X8X8X8X8X8X8X8X8X8X8X8X8X8X8X8X8X8X8X8X8X8X8X8X8X8X",
"8X8X8X8X8X8X8X8X8X8X8X8X8X8X8X8X8X8X8X8X8X8X8X8X8X8X8X8X8X8X8X8X8X8X8X8X8X8X8X8X8X8X8X8X8X8X8X8X8X8X",
"8X8X8X8X8X8X8X8X8X8X8X8X8X8X8X8X8X8X8X8X8X8X8X8X8X8X8X8X8X8X8X8X8X8X8X8X8X8X8X8X8X8X8X8X8X8X8X8X8X8X",
"8X8X8X8X8X8X8X8X8X8X8X8X8X8X8X8X8X8X8X8X8X8X8X8X8X8X8X8X8X8X8X8X8X8X8X8X8X8X8X8X8X8X8X8X8X8X8X8X8X8X",
"8X8X8X8X8X8X8X8X8X8X8X8X8X8X8X8X8X8X8X8X8X8X8X8X8X8X8X8X8X8X8X8X8X8X8X8X8X8X8X8X8X8X8X8X8X8X8X8X8X8X",
"8X8X8X8X8X8X8X8X8X8X8X8X8X8X8X8X8X8X8X8X8X8X8X8X8X8X8X8X8X8X8X8X8X8X8X8X8X8X8X8X8X8X8X8X8X8X8X8X8X8X",
"8X8X8X8X8X8X8X8X8X8X8X8X8X8X8X8X8X8X8X8X8X8X8X8X8X8X8X8X8X8X8X8X8X8X8X8X8X8X8X8X8X8X8X8X8X8X8X8X8X8X"
};
