/* XPM */
static char *ef05e0da51004b49d3551bb30e5ace3ebU2MNvYEkeVLJyo8[] = {
/* columns rows colors chars-per-pixel */
"50 50 199 2 ",
"   c #8A7A59",
".  c #8E8063",
"X  c #928264",
"o  c #94866C",
"O  c #978A6D",
"+  c #9D8B6C",
"@  c #978770",
"#  c #968E77",
"$  c #9C8C73",
"%  c #9F9177",
"&  c #9E9278",
"*  c #A18E6E",
"=  c #A08F71",
"-  c #A08F7B",
";  c #A49275",
":  c #A3947B",
">  c #A6987E",
",  c #AA9A7F",
"<  c #9F9480",
"1  c #A69682",
"2  c #A99781",
"3  c #A49A83",
"4  c #AB9C84",
"5  c #A59D89",
"6  c #AB9E89",
"7  c #B19E85",
"8  c #A49D91",
"9  c #ADA186",
"0  c #A6A088",
"q  c #ACA28C",
"w  c #B1A186",
"e  c #BAA280",
"r  c #B3A48C",
"t  c #B8A78E",
"y  c #B5A98E",
"u  c #B8A98F",
"i  c #A7A296",
"p  c #AEA593",
"a  c #AEA995",
"s  c #ADA699",
"d  c #AEA99B",
"f  c #B2A693",
"g  c #B4AA94",
"h  c #BBAC94",
"j  c #B1A79D",
"k  c #B4AC9B",
"l  c #BBAE9B",
"z  c #BDB196",
"x  c #B6B09D",
"c  c #BCB19D",
"v  c #AEABA4",
"b  c #B4ADA2",
"n  c #B9AFA0",
"m  c #B6B0A3",
"M  c #BCB3A4",
"N  c #BFBAA6",
"B  c #B4B2AB",
"V  c #BCB6AA",
"C  c #BDB9AC",
"Z  c #B6B2B1",
"A  c #BAB6B1",
"S  c #BDBAB3",
"D  c #BCBFBD",
"F  c #C2AD8E",
"G  c #C1AE94",
"H  c #C0AF9C",
"J  c #C0B197",
"K  c #C8B396",
"L  c #C2B39B",
"P  c #CEB99A",
"I  c #C2B5A3",
"U  c #C4B9A5",
"Y  c #C9BAA3",
"T  c #C1B7AA",
"R  c #C3BBAC",
"E  c #C9BEAB",
"W  c #C3BDB3",
"Q  c #C8BEB2",
"!  c #C4BFB9",
"~  c #CCC4AD",
"^  c #D2C4AA",
"/  c #C5C1B4",
"(  c #CAC3B5",
")  c #CBC8B7",
"_  c #C5C1BA",
"`  c #CAC4BB",
"'  c #CEC8BC",
"]  c #D4C7B7",
"[  c #D0C7BE",
"{  c #D2CABD",
"}  c #D7D0BD",
"|  c #C5C6C3",
" . c #CAC7C3",
".. c #CCC9C4",
"X. c #CECDCA",
"o. c #D3CDC3",
"O. c #D1CEC9",
"+. c #CED0CD",
"@. c #D7D1C4",
"#. c #D9D3C5",
"$. c #D3D2CD",
"%. c #DAD5CB",
"&. c #DCD8CF",
"*. c #CFD2D1",
"=. c #D5D5D2",
"-. c #D9D6D4",
";. c #D7D8D3",
":. c #DBDAD5",
">. c #D7D9D8",
",. c #DEDCDA",
"<. c #E3DED5",
"1. c #E1DEDB",
"2. c #E5E0D7",
"3. c #E4E2DD",
"4. c #E9E6DD",
"5. c #DFDFE1",
"6. c #E1DFE1",
"7. c #E5E5E3",
"8. c #EAE6E3",
"9. c #E7E8E4",
"0. c #EBEAE5",
"q. c #E4E5E8",
"w. c #E7E9EA",
"e. c #EDECEA",
"r. c #F2EDE5",
"t. c #F1EEEA",
"y. c #EFF0EB",
"u. c #F8F1E7",
"i. c #F3F2ED",
"p. c #F8F1E9",
"a. c #EFEDF2",
"s. c #F0EEF3",
"d. c #EFF1F3",
"f. c #F5F5F3",
"g. c #F5F5F0",
"h. c #F7F7F5",
"j. c #F7F7F7",
"k. c #F5F5F5",
"l. c #F3F2F4",
"z. c #F9F5F2",
"x. c #F8F7F5",
"c. c #FBF7F4",
"v. c #FAF6F5",
"b. c #FCF6F6",
"n. c #F7F8F3",
"m. c #FBF8F3",
"M. c #FFFAF3",
"N. c #FBFAF6",
"B. c #F9F9F6",
"V. c #FDF9F7",
"C. c #FBFCF7",
"Z. c #FFFFF7",
"A. c #F4F4F9",
"S. c #F7FBFC",
"D. c #F6F9FB",
"F. c #F8F8F8",
"G. c #F9F9F9",
"H. c #FAFAF8",
"J. c #FBFBF9",
"K. c #FBFAF8",
"L. c #FAF8FB",
"P. c gray98",
"I. c #FBFBFB",
"U. c #F9FAFA",
"Y. c #FCFBF9",
"T. c #FFFBF8",
"R. c #FDFAFA",
"E. c #FBFDFA",
"W. c #FCFCFA",
"Q. c #FDFCFA",
"!. c #FDFDFB",
"~. c #FEFDFB",
"^. c #FCFEFB",
"/. c #FFFFFB",
"(. c #FEFDF9",
"). c #FBFBFD",
"_. c #FAFBFD",
"`. c #FAFBFF",
"'. c #FAF8FD",
"]. c #FDFBFC",
"[. c #FBFCFF",
"{. c #FAFDFD",
"}. c gray99",
"|. c #FDFDFD",
" X c #FFFDFD",
".X c #FDFFFD",
"XX c #FEFFFD",
"oX c #FFFFFD",
"OX c #FFFEFC",
"+X c #FCFDFF",
"@X c #FFFDFF",
"#X c #FCFFFF",
"$X c #FDFEFF",
"%X c #FEFEFE",
"&X c #FFFEFF",
"*X c #FEFFFF",
"=X c white",
"-X c #FEFEFF",
";X c #FDFDFE",
/* pixels */
"oXoXoXoXoXoXoXoXoX'.'.oXoXoXoXoXoXK.oXI.oXoX_.~.I.oXI.oX_.oXoX'.oXoX_.oX_.S._._._._.oXoXoX_.oXoXoXoX",
"oXoXoXoXoX_.oXoX'.oXR.oXoX'.oXoXoX`.I.oXn.~.oXI.oX~.B.~.oXK.oX'.K.oXoXoXoX_.oX_._.oX_.oXoXoXoXoXoXoX",
"K.oX`._.`.`.'.`.'.oXR.K.R.'.x.K.C.~.i.I.~.y.i.~.q.y.~.n.l.oXx.R.g.`.~.x.k._.I.I.oXU._.oXoX_.I.oXoXoX",
"K.oXI._.`.`.'.`.'.l.oXB.'.oX'.R.e.~.9.;.C.$.;.B.X.1.~.1.X.R.1.3.oXi.K.'.j.I.~.C.K.K.`.U.K._.K.I.`.`.",
"`.`.K.`.`.`.K.`.oXj.U.K.n.w.I.0.X.B.3.X.I.3.9.~.1.8.'.8.:.oX-.=.oXX.>.oXi.V.V.x.x.R.~.g.B.oXI.U.D.K.",
"oXK.K.K.K.K.`.D.d._.d.oX0.| I.0.=.~.7.=.4.+.X.%.! W -. .O.:.1.1.h.,.0.oX .1.z.b.i.V.I.R.K.`.oXj.`.oX",
"oXh.R.~.x.K.R.l.n.k.+.d.f.;.n.1...,...=.1.;.,.m.S Z e.1.1.<.X. .=.| -.g.-.z.x. .t.b.i.V.K.f.I.H.g.R.",
"K.t.i.z.t.t.g.0.d.d.*.y.9.X.+.;.=.a.5.1.j.3.2.g.| ! R.1.,.'.6.6.l.=.X.X. .1.x.O.t.i.8.i.i.q.C.j.0.f.",
"oX$.<.V.o.r.l.X.t.l.>.*.+.+.y.r.,.y.1.>.0.1.;.i...A i.3.;.i.-.,.l.:.3.f.X.+.=.X.y.j._ g.y._ y.i._ i.",
"Z.3.r.Z.<.p.b.%.1.=.| 7.i.,.9.3.;.w.,.:.0.<.:.u.! W i.,.-.i.,.=.e.:.1.d.:.q.9.| | ,.=.i.y.2.g.i.=.B.",
"3._ ' { ] Q o.` $.7.>.q.8.;.r.2.=.y.3.=.2.:.%.<.W W <.%.%.4.&.:.r.=.:.0.=.9.y.>.,.=.A | ` / ( _ S %.",
"{ d V M n k j V 4.e.$.w.9.$.4.2.$.,.X./ ( / V W n j V V A / W ` &.O.<.e.=.,.9.=.f.0.B i d g g p d S ",
"@.k R f 4 c k T 3.0.=.9.3.%.&.! C C v b m k k l k k a a d k k d n A ' $.X.5.w.+.1.0.C d l q : t d _ ",
"#.p U g 4 L f T 2.9.+.1.+.A V n s b s a k c c g z z f L M x x k a k s n B ..2.$.7.2.N p H w X t p / ",
"} p ~ ^ Y Y h I 2.4.| D B B m 8 a M M g f h L y h g 9 c l q p k l l a b m v A D 3.4.R 6 G P , F a / ",
"} g L Y Y Y l I #.{ B S B V V V E T M I h w u G h L u g 9 f c l l U l k V B V V V %.m f K F K G g S ",
"o.n M I T n T T T ! W A ! W j T m b k I l f r y l L r 6 6 k I n g l I a j ( C C V V b M l l g M x / ",
"o.V R W R R R W ! W W ! ! m 8 n R V n I l h f t L L t f k n n b k M k k j T R V W R M V M M n k d / ",
"{ n V T R T V T o.A !  .! Q T T V M n T c Y L L K l u l I I n n k V l m R Q ' W W W M b k M k p k / ",
"o.m I T T T T R ! T [ O.o.o.o.Q M V M l x L L z L l u l I n n n k V V ` o.{ #.' Q / T n j n k a j W ",
"o.M V M T T T Q ! o.-.&.O.o.` ! Q / R I z z z h L J y g l g k M V R W ` { O.%.#.` / V M g x l a k W ",
"{ M M I T I n Q [ O.=.%.O. .! Q W R T M p f y g L c y r f p c M W V W ! ' @.@.%.o.Q M x g x g p b W ",
"o.M V T E T I ! ! ` O.O.X. ._ _ W ` Q T k h g y L K g y f p x N V V ! !  ...' o.' R m M k c l p k W ",
"{ n M M T I n Q R W O.O.! _ _ ! W W W M k c z z Y z h k z k x R S S S ! ! / _ ) R V M M f k h p k C ",
"{ M I I T I l R T ! _  ._ W _ ! W W W T k c z z z L h k k f c C C S S S W D W D W M M k p z g p k S ",
"[ n n I T I H R V R ` _ _ ! ` ! W Q W Q T R l f L z 9 k L T N N S B C S W C C C N M k k p h g q k W ",
"] k M M U I I R M V _ W _ _ ` W ! W R Q E E c h L c y k I N N C V C C V C V V V V m l k q g t q k S ",
") k c M U I H T I M ( Q W ( W W W W W Q I H l h L z g g k M M R V V V V V V V V M k c f q g t q d R ",
"( x M M I H H Y M I / Q / Q / / W Q Q E U z y y z h q r k I M T R N M N M V V M M k c p q g u q k W ",
") k x z H H l Y l M R ~ Q I / / T R R U ~ L y u z h r y l E M M U x m N M m N k k g c q 0 t u q d R ",
") k k l L l H Y l l M R E n R U x R M h ~ z u J h h y g g U g x T g z M k k M p s g c q q r g q d C ",
"( g g h H G l U l l g U R g R I f U c y P J r u G u w y y L p f M q k c p g M 6 f a l 6 0 9 r 0 k C ",
"( a f L J y z I k l h L L h H I g L h t h u w u h t w w w z t f l 6 t l r h l t q f x 9 5 g 4 6 a C ",
"/ M q t K y g E k k l J G t h I h L h t L L u u t w w t h L 6 r G t h u 9 r h r q 6 c p < q r 4 a C ",
"/ d r y z y g N k k z z u 4 f L y L w : u J y y u 9 w y r r : & y y u w : > y 9 q q l 0 3 r q 3 a C ",
") a y u u r l N g k g z u 4 t l g L 9 : y z r y h q 9 t r y 3 3 q 9 r w & > 9 0 q p g 0 3 9 4 3 a C ",
"/ x 9 9 u r p ~ a a y l h r g c r c f 9 z h 9 r y 3 w q 9 k r 6 g p p y 9 0 r p 0 q l q # > 9 & a B ",
"W a k h z g k N k x l L L z c c g l l k c k q g p 9 g f r g f q g 0 p r q q q q 0 p k p 3 5 q q a V ",
") a ~ L J Y R M V R I T U U I M U U I I c c I Y g q M n c I I M N x M M c c c k k M j f k h f h a V ",
"/ d c g h L L M k M H H H z I c l H l c l z l c r 4 h h h f f f p g k f p f g f g g f p r 6 r r a V ",
"/ g 7 7 w 4 r c j f 6 t 7 2 f f 1 t 6 1 f 7 7 w w 7 2 1 6 7 1 1 6 5 6 4 1 1 q 1 3 6 f 4 O : ; $ q V ",
"E q > F K ; 4 T p f w u 7 - 6 t t l 2 - 7 t w w 7 2 2 t 7 6 @ - 6 5 r 4 @ ; 7 9 4 6 h 3 @ r , o q d ",
"~ h ; + ; * 9 z q p w u , $ 7 h w t : : 7 t w r t : : w 4 t @ $ 6 7 r , @ % 4 9 4 9 y : O +     0 V ",
"~ 9 , ; ; = 9 M q 0 4 r 4 : 5 4 4 6 : : 4 > 4 2 4 % 4 : 1 1 1 & 6 3 5 > $ & 1 : 3 3 f 9 o o o $ < m ",
") i z r 7 h k k b d k l h k k a k k j k k p g k q 5 k p f 6 j f j a f f f f a 8 < k d < q 5 3 5 d V ",
";.d / ] ] ] W ` D _ W W E W / C A T T T V R W b s s i C A T T W V C W T T W W W _ _ W / / W ) R 8 C ",
"D X.i.u.r.t.e.q.w.q.8.8.3.6.5.5.,.1.1.,.=.-.O.!  . .Z $.-.-.>.,.1.6.6.1.1.1.3.7.9.q.q.w.l.9.e.i.O.B ",
"q.h.B.i.b.g.K.'.S.d.A.l.l.l.d.A.A.a.s.l.a.s.s.q.7.l.5.l.A.w.A.a.s.s.s.A.l.l.d.A.A.d.S.l.A.K.R.g.~.3.",
"_.oX_.oXoX'.oXoX_._.oX_.oX`.oX`.`.'.oX`.`.K.`.K.`.'.oX`.'.oXoX`.'.'.'.'.oX'.oX'.oX`.oX`.'.oX`.'.oXoX",
"oXoXoXoXoXoX'.oXoXoXoXoXoXoXoXoXoXoXoXoXoXoXoXoXoXoXoXoXoXoXoXoXoXoXoXoXoXoXoXoXoXoXoXoXoXoXoXoXoXoX"
};
