/* XPM */
static char *f5fbbeb4a379462baca654d0f05d9b97hxhmO18kuYVt9u34[] = {
/* columns rows colors chars-per-pixel */
"50 50 167 2 ",
"   c #AEC8D9",
".  c #B2C5D4",
"X  c #B3C6D4",
"o  c #B3C6D5",
"O  c #B4C7D5",
"+  c #B4C7D6",
"@  c #B2C8D6",
"#  c #B5C8D7",
"$  c #B0CADB",
"%  c #B3CADA",
"&  c #B4CBDB",
"*  c #B6CDDB",
"=  c #B7CDDB",
"-  c #B4CBDD",
";  c #B2CCDD",
":  c #B3CDDE",
">  c #B5CCDC",
",  c #B6CDDD",
"<  c #B4CEDD",
"1  c #B7CEDC",
"2  c #B5CCDE",
"3  c #B6CDDF",
"4  c #B5CFDE",
"5  c #B4CEDF",
"6  c #B7CEDE",
"7  c #B8CBDA",
"8  c #B9CCDB",
"9  c #BACDDB",
"0  c #BACDDC",
"q  c #B8CFDD",
"w  c #B9CFDD",
"e  c #BBCEDC",
"r  c #B8CDDE",
"t  c #B8CFDF",
"y  c #BCCFDD",
"u  c #BCCFDE",
"i  c #B6D0DF",
"p  c #B9D0DE",
"a  c #BAD0DE",
"s  c #BAD1DF",
"d  c #BBD1DF",
"f  c #BDD0DF",
"g  c #BED1DF",
"h  c #B5CFE0",
"j  c #B7CEE0",
"k  c #B9CEE1",
"l  c #B8CFE1",
"z  c #B7D1E0",
"x  c #B6D0E1",
"c  c #B7D1E2",
"v  c #B9D0E0",
"b  c #BBD0E1",
"n  c #BAD1E1",
"m  c #B8D2E1",
"M  c #BBD2E0",
"N  c #B9D0E2",
"B  c #BBD0E3",
"V  c #BAD1E3",
"C  c #B9D3E2",
"Z  c #BBD2E2",
"A  c #BED1E0",
"S  c #BCD2E0",
"D  c #BDD3E0",
"F  c #BCD3E1",
"G  c #BDD3E1",
"H  c #BFD2E0",
"J  c #BFD2E1",
"K  c #BDD2E3",
"L  c #BCD3E3",
"P  c #BED4E1",
"I  c #BDD4E2",
"U  c #BED4E2",
"Y  c #BFD5E2",
"T  c #BED5E3",
"R  c #BFD5E3",
"E  c #BBD2E4",
"W  c #BDD2E5",
"Q  c #BED3E4",
"!  c #BAD4E5",
"~  c #BBD5E6",
"^  c #BDD4E4",
"/  c #BFD4E5",
"(  c #BED5E5",
")  c #BFD6E4",
"_  c #BDD4E6",
"`  c #BED5E7",
"'  c #BCD6E7",
"]  c #BFD6E6",
"[  c #BDD7E8",
"{  c #C0D3E1",
"}  c #C0D3E2",
"|  c #C1D4E2",
" . c #C1D4E3",
".. c #C2D5E3",
"X. c #C0D6E3",
"o. c #C2D5E4",
"O. c #C0D6E4",
"+. c #C1D7E4",
"@. c #C0D7E5",
"#. c #C1D7E5",
"$. c #C3D6E4",
"%. c #C3D6E5",
"&. c #C0D5E6",
"*. c #C2D5E6",
"=. c #C0D7E7",
"-. c #C3D6E7",
";. c #C4D7E5",
":. c #C4D7E6",
">. c #C2D8E5",
",. c #C1D8E6",
"<. c #C2D8E6",
"1. c #C3D9E6",
"2. c #C2D9E7",
"3. c #C3D9E7",
"4. c #C5D8E6",
"5. c #C5D8E7",
"6. c #C6D9E7",
"7. c #C4DAE7",
"8. c #C0D7E9",
"9. c #C2D7E8",
"0. c #C1D8E8",
"q. c #C3D8E9",
"w. c #C2D9E9",
"e. c #C3DAE8",
"r. c #C1D8EA",
"t. c #C3DAEA",
"y. c #C6D9E8",
"u. c #C4DAE8",
"i. c #C5DBE8",
"p. c #C4DBE9",
"a. c #C5DBE9",
"s. c #C7DAE8",
"d. c #C7DAE9",
"f. c #C4D9EA",
"g. c #C5DAEB",
"h. c #C4DBEB",
"j. c #C6DCE9",
"k. c #C5DCEA",
"l. c #C6DCEA",
"z. c #C7DDEA",
"x. c #C6DDEB",
"c. c #C7DDEB",
"v. c #C3DAEC",
"b. c #C5DCEC",
"n. c #C7DCED",
"m. c #C8DBE9",
"M. c #C8DBEA",
"N. c #C9DCEA",
"B. c #C9DCEB",
"V. c #CADDEB",
"C. c #CADDEC",
"Z. c #C8DEEC",
"A. c #C9DFEC",
"S. c #C9DFED",
"D. c #CBDEEC",
"F. c #CBDEED",
"G. c #CCDFED",
"H. c #CCDFEE",
"J. c #CAE0EE",
"K. c #CDE0EE",
"L. c #CDE0EF",
"P. c #CEE1EF",
"I. c #CEE1F0",
"U. c #CCE2F0",
"Y. c #CFE2F0",
"T. c #CFE2F1",
"R. c #D0E3F2",
/* pixels */
"c c h h h 5 c c - k ! K ! k j - k K v.v.v.` g t R 5 t ` ` L t m t t t t L L m L t k L L L L m t t t ",
"    : 5 c c h : - h k k k h j h - K v.v.L t 5 R &.m m L R t t t t t t m L &.R ` L m L L L L k L t t ",
": : c ! ~ ` ` ` k k t 5 k k k k m R ,.R p 5 p L L k L R ` L t L m L m L L &.R R L L m L m m C R L L ",
"~ ~ ~ ! ~ [ 8.v.8.` m k h K K ! y.` m p R &.` L m t g ` &.R ` &.&.&.L C L L m k L L L L R R ` ` R ` ",
"m i t 5 m m R &.,.v.m m K 8.8.*.g.` c m R ` L t t t m R R ` ` ,.) [ ` R L R L m t L C ` ` R R C K } ",
"5 i p m ` L L ` R ` &.R *.g.n.f.` v.) R i % 5 p p L m C C R R ` ) ` R ` ` ` &.R t t R ` ` &.` ` &.&.",
"i m L L L L R m k ` 8.&.*.f.5.*.p R ,.) p * * p L g C R s R R R R ) ,.,.,.,.v.,.X.` ,.,.,.,.,.) y.,.",
"C p t & & & 5 t k K 5.8.K K k r g p s ) ,.&.p p g m R R R ) ,.v.i.,.,.,.,.7.,.,.A.y.7.,.i.,.7.7.,.,.",
"C R m m t t t &.K K &.&.&.&.*.5.R R &.X.R R +.&.R R X.X.R X.X.g g p p X.,.,.&.z.7.,.,.R p p * o &.X.",
"` ,.&.&.L m L } &.&.&.&.&.&.*.*.,.,.X.X.R R g p p R R L L X.&.X.R p R +.&.X.X.,.R +.R g L R p e X.X.",
"R R ` X.X.R g p g R L g k g { } R R X.X.,.+.&.X.R X.&.X.R v.z.z.v.,.,.7.7.X.R R R &.X.R X.7.,.X.;.&.",
"R p p R ,.X.R p R &.&.X.{ { { } ,.,.,.v.z.z.z.z.,.7.,.,.,.z.z.y.z.z.F.z.z.7.,.X.X.,.,.&.,.y.z.7.;.;.",
") C R R ,.,.,.X.z.z.m.m.5.5.y.y.J.F.J.F.z.z.,.,.v.y.7.X.R ,.,.+.,.i.z.z.y.z.z.7.,.,.X.X.X.7.7.X.;.&.",
") R p R &.7.,.&.,.,.;.&.&.} ....7.z.z.z.z.i.,.,.i.z.7.+.R R X.R g X.) ,.,.z.y.7.,.7.7.&.,.,.&.X.X.;.",
"R R p g R X.R R X.} } } g { k } g +.` ,.z.i.i.i.,.i.7.X.+.+.X.X.Y +.+.X.` ,.7.7.i.i.z.7.i.A.7.+.;.$.",
",.X.,.X.X.X.R R m.y.m.5.;.y.s.m.+.+.i.i.i.z.i.7.g X.X.R X.X.R R z.J.i.+.+.+.+.X.7.,.7.7.i.i.7.+.$.$.",
"5...{ ......g g ..*.y.y.*...} ..+.;.7...*.m.y...5.5.y.y.y.y.m.m.,.7.,.,.,.,.,.7.7.7.z.y.y.z.v.7.m.m.",
"5.5.*.5.5.*.5.5.} ..*.....*.;.5.7.7.;.;.;.*.*...y.y.y.y.y.y.y.y.p.z.y.p.7.7.z.i.&.,.7.,.7.,.&.,.} X.",
"5.5.5.5.*.5.5.B.5.;.....;.5.m.B.;.;.y.n.m.y.y.m.y.y.m.y.5.5.*.;.) ) ,.,.,.&.,.&.R &.&.+.&.X.&.X.;.y.",
"5.5.5...5.5.5.B.F.m.5.*.;.y.y.5.5.;.m.P.H.B.y.F.y.y.y.y.y.*.*.{ g s g R X.R X.R R R X.X.X.X.R X.&.;.",
"B.y.5.5.y.B.B.5.F.m.y.y.y.y.;.*.m.5.y.P.F.5.*.y.m.5.5.5.5.5.} g p g R ) &.X.X.R +.,.X.+.,.X.X.X.;.&.",
"B.5...5.B.B.y.*.y.*.;.5.5.5.;.*.y.*.5.n.H.F.F.F.5.5.*.*.5.*.} g R R R +.X.X.&.X.+.,.7.&.&.7.7.,.} ;.",
"......*.5.y.5.5.*.5.y.;.5.5.y.m.;.;.;.y.F.R.T.F.5.5.....*.;...{ R R g L R R X.X.,.,.,.7.7.,.7.&.e } ",
"..*.5.B.B.B.y.B.5.y.n.y.5.5.m.B.F.F.y.*.y.F.y.{ 5...} } ;.*.*.{ ,.) R R R R +.&.X.&.+.,.X.,.X.X.y.;.",
"g ..5.5.*.*.5.5.m.y.y.y.F.y.5.*.y.m.y.m.5.*.{ { 5.;.*.{ { ;.m.F.R ,.,.,.&.X.,.7.7.,.z.y.7.&.,.7.m.5.",
"5.5.5.*.....5.5.y.y.5.*.;.y.;.;.*...*.*.5.;.*.*.g ..y.m.B.F.m.*.y.z.z.,.,.7.7.i.7.v.y.7.7.,.,.,.*.} ",
"y.B.y.y...;.5.5.y.;.....*.*.*.......} ..y.F.m.y.{ ....*.;.y.y.y.7.,.,.,.7.7.,.&.,.,.7.X.,.X.R R m.m.",
"*.5.5.y.B.B.5.5.;.;.*.;.*.;.5.;.y.;.*.y.F.F.m.;.*.*...{ { *.y.y.R R R R ,.&.X.R 7.,.X.X.&.,.R g *.;.",
"{ *...*.5.5.y.y.*.5.5.m.m.y.y.y.B.y.y.F.F.F.y...*.y.y.5.y.5.*.H R g R R ,.y.,.,.z.y.,.,.&.7.X.L k e ",
"{ { e e g ..5.y...5.B.B.F.B.y.m.y.y.5.y.F.m.*.} 5.m.y.*.*.*.5...&.,.,.z.z.z.z.y.y.z.z.y.7.7.&.X.m.m.",
"{ e g g { ..*.5.} *.5.y.5.y.5.m.5.5.*.;.;.;.....5.5...{ g *.y.m.7.z.y.z.z.,.7.7.,.,.,.p.7.7.v.y.5.m.",
"7 e { 5.y.B.*...{ ..;.;.*.*.5.y.B.5.*...} ..*.*.g ..5.m.B.F.B.5.,.,.z.v.R R p g L R ,.,.X.,.&.m.;.;.",
"&.L e t p R L p J.g 9 ;.;.{ e &...g g { *.{ *.5.{ *.B.F.P.F.B.B.B.P.P.P.D.m.;.m.m.;...5.5...{ *.,.i.",
"&.k e p g X.R R ,.p 9 } ;.*.;.m.....{ { ..*.*.y.B.B.B.B.y.5.5.5.5.B.B.P.D.m.m.D.m.;.5.m.5.g g ..R g ",
"R g p R X.,.,.,.P.z.&.X.....} } 5.5.*.5.y.y.y.F.y.y.B.B.y.B.B.y.;.5.5.m.m.D.D.m.B.m.5.B.B.5.5.y.,.,.",
"R C R R +.,.,.R p.,.X.} } 5.B.n.B.m.B.B.F.y.F.F.....5.P.P.B.B.B.m.;...{ ;.5.m.;.5.5.5.B.F.B.F.T.7.,.",
"C R R C R R p g } } *.e { 5.m.n.B.B.5.B.B.5.5.B.*.5.B.B.y.y.5.*.m.;.{ ..;.5.;.;.{ { { *.5.y.y.F.v.i.",
",.,.) ) ) R R R &.;.*.{ e e { { 5.5.5.5.5.;.*.5.B.y.*.....*.*.y.....;.m.D.D.;.{ k { { { ....*...,.z.",
"7.p.p.p.,.R +.R t g ..5.;...*.y.5.5.5.5.5.5.*.5.5.*...g g { *.y...;.;.m.D.m.m...{ { ..{ ....*...p g ",
",.7.) ) R R R R z.A.P.T.F.*.*.y.B.B.B.P.B.5.5.B.......{ { { { *.m.5.;.;.;.m.m.m.k { { { ..*.5.*.R g ",
") ) ,.y.7.,.X.R z.v.;.5.n.n.5...{ *.5.5.B.5...5.y.y.;.y.;.;.;.*.m.;.;.$.$.$.;.$.5.:.*.*.{ { { 5.&.7.",
",.,.v.,.,.,.&.X.7.&.;.5.m.m.5.*.g ..*.5.B.B.5.P.m.y.F.m.F.B.B.B.m.m.6.m.6.$.9 O + . . . + . # 8 R X.",
"7.,.,.,.7.&.,.7.7.7.7.;.y.y.m.B.5.5.5.5.B.B.B.B.F.F.F.F.F.B.F.n.D.m.B.D.B.$.9 X *.{ g { *. .:.y.p p ",
"R ) X.,.7.7.z.z.7.7.7.;.5.y.F.T.B.F.B.y.F.B.5.B.n.F.F.F.F.B.y.y.m.6.6.m.m.m.5.5.:.g u { { u { { p g ",
"i p s +.X.,.&.,.;.;.5.*.*.;.B.P.5.5.5.y.P.F.y.y.5.y.y.y.m.m.y.5.{ ;.;.6.5.6.D.Y.D.5.:.:.5.:.*.*.,.,.",
"* p s R R R g p &.*...&.} ..;.y...5.5.5.B.y.*...{ { { *...*.;.;.H { ;.;.....$.$.:.*.{ .. .{ { ..7.7.",
"R C R R X.R R g X.&.;.5.*.;.*.;.5.5.5.*.B.y.*.{ g { e { g } *.;.{ { { $.$...g 9 :.:.:.:.:...*.:.v.&.",
"R ) ) ) &.,.,.,.7.z.m.m.F.y.y.y.*.5...*.F.P.y.F.y.5.*.*.....*.;.6.$.H H :.:...u :.:.:.:.*.{ { *.z.y.",
"C g s R +.z.,.R 7.z.7.;.m.7.5.n.F.;.;.F.T.m.m.L.m.y.F.T.F.H.P.F...V.&.;.+.p R R R ,.,.X.&.X.X.z.F.m.",
") ) R C ,.7.,.s R ,.} } ;.} } ;.m.} &.m.5.} { *.*.e *.;.*.;.5.*.X.m.&.;.,.g R R X.,.X.X.&.X.R 7.;.X."
};
