/* XPM */
static char *_8d4067844214bc5c77aa7700eaebc9bGXRWFGGswrW3oF89[] = {
/* columns rows colors chars-per-pixel */
"50 50 213 2 ",
"   c #040606",
".  c #1E1711",
"X  c #241913",
"o  c #2C1916",
"O  c #211D19",
"+  c #2A1E19",
"@  c #271714",
"#  c #311E19",
"$  c #2B211B",
"%  c #20201E",
"&  c #1D1D22",
"*  c #282828",
"=  c #372A28",
"-  c #3F302D",
";  c #2E2E32",
":  c #302F37",
">  c #35343C",
",  c #37383B",
"<  c #4D3F3F",
"1  c #533E3B",
"2  c #5D4239",
"3  c #3D3C42",
"4  c #3D3E4A",
"5  c #3D4142",
"6  c #424245",
"7  c #44454B",
"8  c #4A4B4D",
"9  c #47494A",
"0  c #58494B",
"q  c #4C4B54",
"w  c #494859",
"e  c #504F59",
"r  c #525254",
"t  c #54535D",
"y  c #58595A",
"u  c #665355",
"i  c #755B55",
"p  c #5D5C6C",
"a  c #5A5863",
"s  c #6B5E62",
"d  c #5E6269",
"f  c #65646C",
"g  c #616066",
"h  c #686678",
"j  c #73727C",
"k  c #7B6975",
"l  c #845E57",
"z  c #856B5E",
"x  c #8D7877",
"c  c #8F7271",
"v  c #A67867",
"b  c #A37D7C",
"n  c #A76F62",
"m  c #9C817D",
"M  c #B08069",
"N  c #A78177",
"B  c #B68273",
"V  c #E49978",
"C  c #757583",
"Z  c #7D7D88",
"A  c #7A7B90",
"S  c #807E89",
"D  c #7E828B",
"F  c #838389",
"G  c #8A8A94",
"H  c #8D8B9B",
"J  c #878499",
"K  c #918F9D",
"L  c #908F95",
"P  c #94929B",
"I  c #AD8C8A",
"U  c #A88584",
"Y  c #B38D8C",
"T  c #AF8F94",
"R  c #B89296",
"E  c #B28B90",
"W  c #8D8AA5",
"Q  c #9594A4",
"!  c #9A97A4",
"~  c #9B9AA6",
"^  c #9593A9",
"/  c #9996AC",
"(  c #9D9BAB",
")  c #9D9BB2",
"_  c #9793B1",
"`  c #A19DAC",
"'  c #A19EB3",
"]  c #A59EB7",
"[  c #B998A3",
"{  c #A3A2AD",
"}  c #ACADAB",
"|  c #A6A2A9",
" . c #B3A6AC",
".. c #AFB1AE",
"X. c #B0B2AF",
"o. c #A4A3B2",
"O. c #ABA5B3",
"+. c #ACAAB4",
"@. c #A4A3B9",
"#. c #ACAABB",
"$. c #A8A8B8",
"%. c #B3ACB4",
"&. c #B0AFBD",
"*. c #BAA6B8",
"=. c #ADB2B5",
"-. c #B3B4B4",
";. c #B4B3BD",
":. c #BBBAB9",
">. c #DD9982",
",. c #C18783",
"<. c #C6B9B3",
"1. c #BEC0BB",
"2. c #C5C1BB",
"3. c #D7CBBB",
"4. c #FDCDA6",
"5. c #F6D2AE",
"6. c #FCD4B4",
"7. c #FFDDBB",
"8. c #F7D5B9",
"9. c #E7D0BE",
"0. c #ACA9C3",
"q. c #B3AFC3",
"w. c #B2AEC9",
"e. c #B4B2C3",
"r. c #BCBCC6",
"t. c #B9B6CA",
"y. c #BBBACB",
"u. c #B7B5C7",
"i. c #BEBBD2",
"p. c #BBB7D2",
"a. c #CEB4C3",
"s. c #C1BFCD",
"d. c #C8BDC9",
"f. c #C1BED5",
"g. c #C1BDDA",
"h. c #D9B8C3",
"j. c #BFC1D0",
"k. c #C5C5C5",
"l. c #CBCAC6",
"z. c #C4C3CC",
"x. c #CBCBCB",
"c. c #C9C7C7",
"v. c #D6CACA",
"b. c #CED2CC",
"n. c #D1D1CE",
"m. c #DBD2C9",
"M. c #C4C2D3",
"N. c #CCC5D5",
"B. c #CCCBD4",
"V. c #C5C3D9",
"C. c #C9C6DC",
"Z. c #CCCADD",
"A. c #D1CFD5",
"S. c #D1CDDD",
"D. c #D2C3D8",
"F. c #CDD1DA",
"G. c #D4D3D4",
"H. c #D5D9D5",
"J. c #D4D2DD",
"K. c #D9D6DD",
"L. c #DBDBDC",
"P. c #DBD9D9",
"I. c #FBDBC3",
"U. c #E4DADC",
"Y. c #E1D3C6",
"T. c #CDCCE2",
"R. c #D1CEE3",
"E. c #D4CDE7",
"W. c #D4D2E4",
"Q. c #DAD6E4",
"!. c #DBDBE4",
"~. c #D4D2EA",
"^. c #D9D7EA",
"/. c #DCDBEB",
"(. c #D6DAE9",
"). c #DCD7F1",
"_. c #E0DEE5",
"`. c #E1DEEB",
"'. c #E0DDF0",
"]. c #DFE6F1",
"[. c #E3E3E6",
"{. c #ECE3E5",
"}. c #E4E3EC",
"|. c #E8E7ED",
" X c #E6E8EE",
".X c #EBEAED",
"XX c #EFECE1",
"oX c #F2EBEA",
"OX c #F9ECE4",
"+X c #FFF2E5",
"@X c #FCF4ED",
"#X c #F6F5EA",
"$X c #E5E5F3",
"%X c #E9E7F2",
"&X c #ECEBF3",
"*X c #EDECFA",
"=X c #E6E9F0",
"-X c #F0EEF4",
";X c #F1EEFD",
":X c #EEF2F8",
">X c #F4F4F5",
",X c #FAF6F5",
"<X c #F7F8F3",
"1X c #FCFBF6",
"2X c #F4F4FB",
"3X c #F9F6FC",
"4X c #F6FAFC",
"5X c #FCFFFF",
"6X c #FFFEFF",
"7X c white",
"8X c #FEFEFF",
"9X c #FEFEFD",
"0X c #FEFEFD",
/* pixels */
"5X5X0X5X5X5X1X2X2X4X9X9X5X9X5X1X5X5X5X5X9X;X>X2X1X5X0X1X5X5X0X9X5X5X5X5X5X5X5X5X5X5X5X5X5X5X5X5X5X5X",
"5X5X5X>X5X3X2X_.!._.-X9X3X5X1X5X5X5X5X5X-X_._.!..X5X5X5X5X0X5X9X5X5X5X5X5X5X5X5X5X5X5X5X5X5X5X5X5X5X",
"5X1X5X5X2X&X`.&X:X:X$X2X0X1X0X5X0X5X1X-X|.-X;X'.{ B.4X0X0X0X5X3X5X5X5X5X5X5X5X5X5X5X5X5X5X5X5X5X5X5X",
"0X5X9X1X|.Q ^.4X5X2X2X!.|.>X5X0X5X3X}..X%X2X$X^.#.w B.0X0X5X1X5X5X5X5X5X5X5X5X5X5X5X5X5X5X5X5X5X5X5X",
"5X5X5X<X=.p z.{.U.1X4X&Xe.`.4X5X5XJ.e.$X*X(.a.a.#.t =.4X1X9X5X9X5X5X5X5X5X5X5X5X5X5X5X5X5X5X5X5X5X5X",
"0X9X5Xb.7 ( d.m s l.<X&XV./ N.&XZ.( V.$X/.| l S d.! 9 b.5X1X9X9X5X5X5X5X5X5X5X5X5X5X5X5X5X5X5X5X5X5X",
"0X0X5Xb.3 *.h.B l i H.4XZ./ ^ Q Q ) f.^.u.0 l b a. .5 c.9X9X9X5X5X5X5X5X5X5X5X5X5X5X5X5X5X5X5X5X5X5X",
"1X5X2X} e w.,.>.v 2 x.].(.T.T.T.Z.T.).~.+.1 B >.[ [ q =.2X9X9X9X5X5X5X5X5X5X5X5X5X5X5X5X5X5X5X5X5X5X",
"5X5Xn.9 Q a.Y V v i D.2X2X,X1X2X<X0X4X`.r.u v V E a.~ 7 G.5X9X1X0X0X5X5X1X0X0X0X5X5X5X0X0X1X5X5X5X5X",
"5X1Xc.5 q.D.Y n z <.>X5X9X5X9X9X5X3X5X>X X<.i v T D.#.5 k.5X5X1X5X5X5X5X0X0X0X5X0X5X5X2X`.&X[.3X5X1X",
"5X1Xl.6 @.W.%.c 2.1X4X5X5X0X1X5X9X9X0X0X4X&X+.k <.Q.O.3 n.1X5X5X1X5X5X5X0X1X0X5X0X0X9XW.] _ / `.9X5X",
"0X0Xv.8 Q Z.W.Q.1X5X4X5X1X0X5X5X9X9X0X1X5X:X(.w.f.D.~ 6 n.0X5X5X5X5X5X5X0X0X5X5X%XP.c.#.C.g.p.' |.5X",
"5X1X1X+.t r.2X4X4X9X5X5X5X0X0X5X5X5X0X1X9X3X(./.~.y.d u.-X1X5X5X5X5X5X5X5X5X3XK.' S t k.%X`.i.J [.5X",
"4X5X4Xk.s G.9X9X5X9X1X5X5X0X5X5X1X5X5X9X9X3X>XJ.~.y.H S.9X1X0X5X5X5X5X5X1X5X|.o.g.( f G.1X_.q.w :.5X",
"5X5X X| B.,X9X9X9X5X5X0X1X5X5X0X1X9X5X9X5X9X4X/.~.~.e.@.}.1X1X5X5X5X5X0X0X5X}.$./.Z.' }.1X>Xt.w G Z.",
"1X5X$X$. X5X5X9X5X1X0X0X5X5X1X5X9X9X9X5X5X9X4X/.~.T.N.^ $X0X0X9X5X5X1X0X0X5X2XW..X!.E.3X5X>XZ.^ 0._ ",
"5X1X2XZ.#X0X5X0X5X5X0X5X5X5X5X5X9X1X5X0X1X0X3X^.F.W.i.) }.5X5X1X9X9X9X9X1X5X;XS.>X3X}.3X5X,XQ.R.V.W ",
"0X0X*X^.&X9X5X#XL.x.P.3X1X5X1X5X5X5X5X2XL.F.r.Z.~.~.g.Q $X5X0X5X5X5X5X5X1X5X`.#.}.5X3X9X5X4X%X*XC.W ",
"0X0X$X] %X4X4XH.r ; r P.5X5X1X5X0X0X5XL.r * 7 r.~.E.i.^ |.5X1X0X9X9X9X5X5X5X`.( `.5X1X5X5X9X3X2XC.W ",
"<X5X}.#.!.5X0XH.*   ; A.9X,XG.n.Y.1X0Xx.*   * O.^./.~.@.!.5X5X5X5X5X9X5X5X9X|.o.S.>X0X0X5X5X5X>XZ.W ",
"0X&X!.&X>X1X0XA.y * r P.5XQ.f , d /.5Xz.8 * r z.>X>X;X$X}.-X5X5X1X5X9X5X5X5X9XA.' |.0X,X5X5X9X<XZ.W ",
"|.#.J.>X5X0X+X+X3.3.m.1X9X|.S > D  X1X{.m.3.v.OX1X0X5X9XQ.[.3X9X5X5X9X5X5X4X9X|.' N.2X9X5X0X9X0XC.W ",
"2X!.$.j.&X+X8.I.6.I.9.+X0X5X!.Q H.1X+XI.7.5.7.8.+X0X-XM.e.}.5X3X0X1X9X5X5X5X5X9XR.#./.9X0X0X5X&XC.W ",
"1X4Xj.j J.+X5.7.4.6.7.+X0X5X$Xo.].5X@X8.7.4.6.6.,X1X/.e.M.2X5X0X0X5X5X5X0X0X0X5X*X( C.2X0X1X0X`.V.W ",
"0X>XN.T.%X2X@X#X@X@X,X0X0X1X(.#.Q.2X9X,X@X,X,X@X,X4X%XQ.| }.4X;X2X>X2X4X>X9X5X5X>XN.w.&X1X1X2X^.i.A ",
"0X.Xo.M.W.}.5X1X0X5X0X1X1XQ.r.f.d.Q.,X5X0X1X9X5X1X%XE.t.J N.Q.Q._.Q._.Q.Q.;X.X.Xx.O.g.;X0X3X/.C.~ w ",
"5X3XQ.{ ' J.&X4X3X5X5X5X5X4X%X2X.X4X9X9X5X1X3X%X%Xf.J h a | |.2X3X;X3X3X4XJ.%.+.g q.^.2X2X^.^.u.r | ",
"5X5X2X.X!.` &./.0X5X0X5X0X5X5X1X5X5X9X9X5X9X!.#.) ^ a g :.[.5X5X5X5X5X5X3X2XA.f G M.^.J.^.^.T.! 9 b.",
"5X5X5X5X4X}.N.%X2X2X>X2X>X&X3X5X5X5X3X3X4X3X$Xs.@.y.A.G.1X5X5X5X1X5X5X5X5X5X,Xz.C / u.N.Q.E.w.t =.#X",
"0X0X0X1X5X5X:X/.!.Q.!.F.@.E.&X1X5X<X{.Q.Q._.}.`..X3X5X2X$X&X>X1X0X1X0X1X1X5X5X>X;.a p +.Z.Z.( 6 B.0X",
"5X1X1X5X5X,X5X4X2X3X2X}.' f.2X4X0X5X0X4X3X2X2X2X5X0X3X_.&.;.A.>X0X5X0X5X5X5X,X5X.Xs.' h Q ( a :.<X5X",
"9X5X5X5X5X5X5X5X0X0X0X5XS.! [.1X0X5X5X4X5X5X5X5X5X1X5X>X-XR.o.}.5X5X5X5X,X5X5X5X1X2XR.` 6 6 -.@X0X5X",
"5X5X5X5X5X5X5X5X5X5X0X0Xl.y H.1X5X9X9X5X9X9X3X5X9X5X0X0X0Xz.j J.5X1X5X9X5X5X5X0X5X2X`.w.q L {.5X5X5X",
"5X5X5X5X5X5X5X5X5X5X5X5Xx.5 r.9X1X5X5X5X5X3X-X3X5X5X0X1XQ.+.! j.&X4X5X5X0X0X0X5X0X3X^.S.Q 8 G.0X5X5X",
"5X5X5X5X5X5X5X5X5X5X1X5Xx.; L &X5X5X5X9X5X1X>X9X5X1X0X,X4X`.e.;.J.}.-X5X0X0X1X5X1X4X`.R.&., G.0X5X5X",
"5X5X5X5X5X5X5X5X5X5X5X5Xx.; S }.3X|.9X5X5X3X&X3X5X0X0X0X*XM.C #.T.W.}.3X0X5X9X5X0X5X^.C.| 6 l.0X5X5X",
"5X5X5X5X5X5X5X5X5X5X5X5Xd.: G R.z.x.-X5X5X2X}.4X5X0X>X2X%Xf./ M.~.T.Z.>X1X5X5X9X0X&X'.e.e -.3X5X5X5X",
"5X5X5X5X5X5X5X5X5X5X5X5XB.> K K +.Q.4X4X9X5X/.:X1X5X1X}.R.Z.f.Z.~.V.$.&X5X5X5X9X3X$XC.! 7 x.5X0X5X5X",
"5X5X5X5X5X5X5X5X5X5X5X1Xc.6 H p M.2X.X&X4X;X(./.5X5X3XQ.R.g./ f.~.g.' e..X4X5X5X2XW.e.e -.1X0X5X5X5X",
"5X5X5X5X5X5X5X5X5X5X5X<X%.r L h r.M.| K.;X`.F.~.-X5X2X}.(.u.h o.T.T.e.h $.Q.>X>X`.Q.#.3 c.1X0X9X5X5X",
"0X0X5X5X5X5X5X5X9X5X3XB.p ] M.e.] H h ' &.u.j.0..X5X4X4X(.Z.o.d ^ e.| j t o.W.^.E.W.e.7 +.<X5X5X5X5X",
"0X5X5X5X9X5X5X5X9X9X|.O.r.J.W.E.C.i./ t ; q Q ) [.5X5X>X/.~.t.A 4 4 e ~ =.a { T.T.^.M.C t :.>X0X5X5X",
"5X5X5X5X5X5X5X1X1X3X!.}.-X0X2X/.Z.~.C.! : m t Q .X5X0X0X2X/.R.o.5 G ~ f } } f $.~.~.T.C.~ y :.<X5X5X",
"5X5X5X5X5X1X5X5X9X2X`.3X5X1X3X(.(.T.T.Q 6 l.F.j.2X5X0X0X3XQ.W.0.8 ;.Z.~ 9 :.e.] Z./.^./.W.~ a -.>X5X",
"5X5X5X5X9X3X5X9X}.`.3X5X5X5X2X(.E.^.w.a -.<X>XE..X5X0X1X3X/.^.$.8 +.W.#.6 ..+.T.>X>X3X&X/.W.Q q G.1X",
"5X5X0X0X9X9X3XJ.&.&X5X5X5X2XW.^.R.W.Q 7 G.3X!.&.[.>X0X5X3XQ.W.#.q #.~./ 7 x.J.;X5X0X0X5X2X).#.3 x.1X",
"0X0X1X0X9X9X`.` N.-X1X1X9X`./.S.T.{ y -.2XQ.%._.>X0X0X0X>XQ.S.#.w ;.#.w | J.>X3X9X1X1X0X9X*X;., x.5X",
"0X0X0X0X3X,X_.` Q.oXOX+X_.E.N.N.o.y :.,X[.O.A.|.oXoXoX{.K.S.N.~ p +.~ q d.d._.oX>XoXXXXX.XL.P 8 n.0X",
"0X0X5X5X0X{.x N U U U Y b U U b 5  .0X0XU.x I I b I I b N Y x 0 D G 9 -.2.0 x m I I N I T x 6  .0X0X",
"5X5X5X5X1Xl.- o + X + $ X + * . * k.5X>Xv.= o # X $ $ @ + = %   & * & x.n.O X @ + + o o + $ % c.0X0X"
};
