/* XPM */
static char *_bca53d7eec940fee0f0d148b95664edNWTFwqiJOdCyvQ6y[] = {
/* columns rows colors chars-per-pixel */
"50 50 247 2 ",
"   c #153E78",
".  c #1B4778",
"X  c #365A7A",
"o  c #214C7A",
"O  c #496378",
"+  c #1C4886",
"@  c #234C83",
"#  c #254D8D",
"$  c #24548E",
"%  c #2B5688",
"&  c #325B8A",
"*  c #365C85",
"=  c #2B5894",
"-  c #325D9A",
";  c #315B91",
":  c #204D91",
">  c #36648C",
",  c #356493",
"<  c #3A6392",
"1  c #39669C",
"2  c #3C729E",
"3  c #3D6AA1",
"4  c #3E72A2",
"5  c #476A88",
"6  c #436C93",
"7  c #426B9B",
"8  c #496D98",
"9  c #48759B",
"0  c #5B7B94",
"q  c #547B9D",
"w  c #5A7E9B",
"e  c #567698",
"r  c #58748C",
"t  c #637B93",
"y  c #446DA4",
"u  c #4A75A3",
"i  c #4777A6",
"p  c #557CA5",
"a  c #527CAA",
"s  c #5A7CA6",
"d  c #4D7AB5",
"f  c #587CB0",
"g  c #65859B",
"h  c #778B96",
"j  c #5B84AD",
"k  c #5783A8",
"l  c #4F81B6",
"z  c #5A86B7",
"x  c #6B8AA3",
"c  c #6688A8",
"v  c #6B92AC",
"b  c #7493AD",
"n  c #7D95AB",
"m  c #7993A6",
"M  c #638DB3",
"N  c #678AB8",
"B  c #6A93B5",
"V  c #6B94BB",
"C  c #6996B9",
"Z  c #7A9BB4",
"A  c #7395BA",
"S  c #759CBB",
"D  c #7899B9",
"F  c #748BA2",
"G  c #7DA2BD",
"H  c #6A95C3",
"J  c #6E9CCA",
"K  c #6B98C5",
"L  c #769CC5",
"P  c #799CC6",
"I  c #6E98CE",
"U  c #7CA2C4",
"Y  c #7BA4CC",
"T  c #75A3CB",
"R  c #7AA8D3",
"E  c #5F8EC6",
"W  c #829AAA",
"Q  c #859DB5",
"!  c #83A2BB",
"~  c #89A5BB",
"^  c #8AA5BA",
"/  c #9AACBD",
"(  c #92A7BC",
")  c #92ABB9",
"_  c #ABB2BB",
"`  c #849EC2",
"'  c #83A4C3",
"]  c #85AAC2",
"[  c #8DABC4",
"{  c #83A5CB",
"}  c #8AADCA",
"|  c #87A9C8",
" . c #93ACC4",
".. c #97ADC8",
"X. c #8BB1C8",
"o. c #9DB3C5",
"O. c #93B1CC",
"+. c #9BB4CC",
"@. c #9BB9CC",
"#. c #96B3C7",
"$. c #88ABD5",
"%. c #91ACD2",
"&. c #8CB2D4",
"*. c #89B5DA",
"=. c #94B4D3",
"-. c #95B9D4",
";. c #9CBCD4",
":. c #95BCDA",
">. c #9BBCDC",
",. c #98B6D7",
"<. c #A2B6CB",
"1. c #A3BBCD",
"2. c #ABBCCC",
"3. c #A6B6C4",
"4. c #B3BECA",
"5. c #A3BCD3",
"6. c #ACBED3",
"7. c #A2BEDB",
"8. c #A5B9D4",
"9. c #B1BFD1",
"0. c #82ADE0",
"q. c #8AB9E3",
"w. c #93BCE3",
"e. c #98BAE5",
"r. c #9BBCF1",
"t. c #A0BEE4",
"y. c #9DC0DD",
"u. c #95C0DB",
"i. c #ABC1CC",
"p. c #B3C2CE",
"a. c #BBC5CD",
"s. c #B6C0C1",
"d. c #A4C1D5",
"f. c #ABC2D4",
"g. c #A4C2DC",
"h. c #ABC4DB",
"j. c #ACCADD",
"k. c #A7CBDB",
"l. c #B3C4D4",
"z. c #BBC5D3",
"x. c #BCCBD5",
"c. c #B2C5DB",
"v. c #B3CADC",
"b. c #BCCCDD",
"n. c #B2C8D6",
"m. c #BBD1DE",
"M. c #9DC3E4",
"N. c #9AC5EA",
"B. c #95C4F6",
"V. c #A4C4E3",
"C. c #ABC6E2",
"Z. c #ACCBE4",
"A. c #A5CBEA",
"S. c #ACCCEB",
"D. c #A4C7E7",
"F. c #B4CCE4",
"G. c #BACDE2",
"H. c #B2CEEA",
"J. c #BACFE8",
"K. c #AED1ED",
"L. c #A6D2EF",
"P. c #B5D2E5",
"I. c #BCD2E4",
"U. c #B4D2EB",
"Y. c #BBD4EB",
"T. c #BCD9EE",
"R. c #BBDAE9",
"E. c #A6CBF4",
"W. c #B2CEF1",
"Q. c #A8D4F7",
"!. c #B3D5F3",
"~. c #BAD6F2",
"^. c #BCDAF4",
"/. c #B4DAFC",
"(. c #BCDDFB",
"). c #B3D6FE",
"_. c #B8E4FE",
"`. c #C4CCD4",
"'. c #C2CDDC",
"]. c #CCCED5",
"[. c #C5D2DB",
"{. c #CBD3DC",
"}. c #CAD4D8",
"|. c #D2DBDC",
" X c #D5D8DB",
".X c #C2CCCD",
"XX c #C3D4E4",
"oX c #CAD5E2",
"OX c #CBDAE3",
"+X c #C3D6EB",
"@X c #C4DBEB",
"#X c #CBDBEB",
"$X c #C6D8E6",
"%X c #D3DCE4",
"&X c #D3DDEC",
"*X c #D9DCE3",
"=X c #C3DCF3",
"-X c #CBDDF3",
";X c #C4D9F4",
":X c #D2DDF2",
">X c #D6E1E5",
",X c #DCE3E5",
"<X c #D4E2EC",
"1X c #DBE4EC",
"2X c #DEE8ED",
"3X c #D2EAEE",
"4X c #C5E2F6",
"5X c #CDE2F4",
"6X c #C2E3FD",
"7X c #CAE3FB",
"8X c #CCEAFE",
"9X c #CBEAFB",
"0X c #D3E3F4",
"qX c #DBE5F3",
"wX c #D6E8F3",
"eX c #DCEAF3",
"rX c #D5E7FC",
"tX c #D4ECFE",
"yX c #DBECFC",
"uX c #DCF2FE",
"iX c #D7F2FA",
"pX c #CFE1EF",
"aX c #E2E4E6",
"sX c #E3EBEC",
"dX c #EAEBED",
"fX c #E3E7E9",
"gX c #E9F0EE",
"hX c #F3F1ED",
"jX c #E4ECF3",
"kX c #EBEEF3",
"lX c #E3EDFB",
"zX c #E8EBF9",
"xX c #F1EFF6",
"cX c #ECF3F4",
"vX c #E3F3FE",
"bX c #EBF4FD",
"nX c #E5FCFF",
"mX c #ECFAFF",
"MX c #EAF4F5",
"NX c #F2F5F4",
"BX c #F3F5FB",
"VX c #F9F6FC",
"CX c #F6FEFF",
"ZX c #F4FBFD",
"AX c #F9FFFF",
"SX c #FBFDFD",
"DX c #F5FBF6",
/* pixels */
"<XvX$Xx.f.<XlX>X*XdXxXkXVXVXzXBXlXVXCXCXZXNXSXhXhXSXVXVXVXVXgX2XSXSXDXDX}. X4.aXVXfX.X4.`.DXbX#Xo. .",
"<XeX<XwXOXOXOX%XcXVXVXAXkX%X1XqX0X:XlXjXMXCXDXhXhXNXVXSXDX*X|.gXSXSXdXVXdX{.*XjX|.4.}.,X`.%XeXqXXXG.",
"AXAXZXZXeX<XeXMXOXjXMXAXqXp.OX-X+XG.#X<X>XgXsXcXSXVXVXVXcX>X|.|.|.gXbXVXBXz.bXAXjX%XsXMXMXlXlXlXlXlX",
"dXZXZXvXeX<XOX'.a.&XlXvX$X .<.C.6.c.6.$X[.}.2XMXdXsXzXVXSXCX2X[. X|.mXmXBX#X1XvXMXmXmX|.MXCXAXbXAXAX",
"*XaXaX}.`.[.p./ / [.-X#XI.[ b } +.6.<.n.b.3XmX1X%X&XqXbXbXqX&X2X%X2XeX{.z.9.oXbXOXeXCX|.a.{.zX1XNXNX",
"SXNXjX}.[.$X[.l./ c.I.H.^.7.D D 8.W.-Xv.n.nXuXOX$X0X:X#X&XoX{.%X>XsX%XlXlXqX'.3.OX1XmXeX|.a.`.oX,X|.",
"DXNXCX&XOX$X+XY.P.Y.F.~.;X!.&.v | F.7XY.f.tX@Xv.<.J.+X+XlXlXoX{.lXmXmXCXbXrXz.2.%X1X2XgXZXjX].aXsX*X",
"aXkXbXn.6.v.^.=XZ.g.+.C.K.K.M.e c [ ..H.j.T.P.;.7.C.g.Y.vX0XoXlX1X{.jX&X&X:X3.'.vXbXmXSXcXCXxXcXjX%X",
"&X0Xl...5.g.U.S.C.H.=X[ O.g.Z.Q ] x x Q ^.7.' D ' | O.g.-Xn.4.a.a.}.OXoXl.3.3.4.OX>X1XcXaX*X].aX|.{.",
"b.+XW g =.:.D.A.] V.Z.Q ^  .F.8XC.Z x Z g.>.V.D.A j U G U.v.z.3._ {.mXCX:Xz.9.6.yX<X`.gXBXNXkXxXAXCX",
"-X7XC.H.S.L $.&.D D V.P. . .h.F.T.Z.g. .7.!.).e.p < C Z h.@XBXAXCX1X{.#X#X+XqX0XeXmXjXCXkX,XVXSXDXVX",
"H.;XH.| V C Y C &.' O.F.j.v.c.4XP.@XtX;XW.%.A a i 9 k k Z c.&XBXmXlXqXmX:Xv.+X#Xm.yXyXZXjXzXBXkXBXDX",
"J.H.,.e p s S N.Y ' =.~.^.@Xn.I.P.4XuX7X7.s e a 2 2 2 v V.yXqXbX<X#X#X$X8.<.U.J.rX5X#XwXeXbXlX&X*XjX",
"J.J.C.5 > V R N.N.&.,.Z.5.C.h.d.o.@XnXtXt.c 8 y 2 2 k S 6X0XoX{.a.b.#Xj.[ >.H.7.h.d.1.d.2.f.2.XX'.oX",
"G...;XW.A.w.K p Y N.V.g.~.T.5.P.v.i.T.=X` e u 4 2 2 9 R ^.G.%XoX0Xc.+XC.7.C.} g x [ #.P.Y.J.6.G.9.9.",
"G.H.~.V.e.K 9 9 q U S.~.~.U.g.P./ o.;X7X%.&.&.k k k k A.^.@XyXvXG.[ H.S.{ A s p q K._.4X;XI.=X7X;X~.",
"k._.A.C k 2 9 2 8 V.~.;XR.R.R.R.@.o.H.Y.8X8X!.(.~.Y.=XY.J.;X(.C.x w b p 8 i y y N (.Z.k.R.K.>.e.V.7.",
"G G N.C % > > , $.!.t.=.k.y.@.k.P.v.Y.~.S.!.=X=X0X$X0X6.=XU.D s A { E.P & ; y 1 N P x X.R.y.U ' { U ",
"v B k 2 > $ 3 3 $.B.e.A { U G A.@.P.U.^.y.;.k.U.;X1./ n J.;X-.A *.q./.L.a .   @ f &.D Z ) y.g.y.>.,.",
"8 9 , 2 2 , 4 E E I f 6 j j z :.Y.@Xd.g.L.-.Z #.F.v.<.5.[ [ S.D.*.w.M.N.w.M % @ - { e.g.@.#.;.Z.Z.h.",
"q 6 P N < i l B.z - % @ , < k X.!.P.g.Z G v c -.h.H.j.Y.F.H.(.e.N L P :._.Q.P f N { W.yXnX=XP.v.$XI.",
"S.V.(.B.z 2 , I y - % % 2 l K R g.j.6XG 5 5 Z D.6X^.P.Z  .O.b 0 f a P L./._.E.R r.r.;X-XtX@Xv._ -X#X",
"C.~.A.(._.T M C , > o , C u.*.T >.;.K.X.e k G G D.~.8Xb r O 5 F Y P Y u.*.L.).q.N s t Q ( W ) 3.h.5.",
"@Xj.v.^.U.:.R S > & . i R R T *.M.K.U./.u.M.M.-.K.!.8X8XC.g.F.~.!.S 9 M S K e.).r.` n t W h W Q n b ",
"XX$Xv.b.T.T.A.B * * H I J w.{ *.M.:.=.>._.6X!.} G G Z.(.~.4XT.Y.K.P 9 M M k I q.&.k.d.$X$XyX-X8.F.5.",
"<X[.'.'.XX@Xg.Z * f r.B.0.K j H U B M | K.8X6X;.Z Z } ;.U.7XT.T.K.] w q M K I H P u.) OXeXmXbXlXnXuX",
"#X'.qX:XXXXX+.' y H I d d i 1 8 a j k ] U.~.=XY.y.[ ;.~.=X^.4X8X8X-.g 6 J *.d < e Y.R.3XiXmXBXbXjXNX",
"&X&XzXqXXXG.5.%.E I d - - - y - , i 9 P |  .J.C. .d.~ ~ =X^.<.+.^.D.S q u < @ & k ^.$XiXnXeX-X+X%XNX",
"bXbX1X<X{.XX+Xe.$.y = - = # # = a , > U [ h.rX2.( G.+.g [ ~.J...7.~.&.U *.q.H < 6 >.d.x.@Xm.n.c.3.oX",
"zXbXeX>XoXoX:Xt.P ; : : : #   + $ 2 j A.~.-XqXlXXX<.;Xh.~ +.=XF.C.S.D.6X_.*.V 1 > ,.Z.d.3.2.f.6.<.6.",
">XjXDXNX2XOX$XF.6 . = + + - . . $ = < D.vXbXoX{.:X9.rXrX7X7.[ C.&.V.k.u.G R *.j P $.Z.T.I.+X'.c.G.6.",
"MXsXAXAXDXMX&X;XM % 1 : d R , i l + 7 ).-XyX:X'.6.l.tX.. .O.Q +.} g Z G v v S Y { | H.H.h.0XyXG.-XI.",
",XDXSXDXSXNX{.v.C.M H H J B.R C 1   i ).D.C.) #.u.u.k.@.Q =.} O.C.|  .g.~ g v ~ ! h.J.-Xb.n.n.3.OXx.",
"MXcXDXNXVXBX&X'.U.%.N I R q.T 2 + # 7 )./.U.P.g m g X.L.A.! [ h.[ J.Z.[ X.X.y.d. .T.-XG.6.:XmXlXeXMX",
"hXsXDXfXdXdXjX0XC.| c R J l E 4 $ @ y *.=.^.8XZ O X 0 ! S.F.Y.g.G.5.;.g.Z.@.d.d.F.uXrXl.o.b.$XyXjXZX",
"gXaXDXdXaX X*X:X8.s u f 2 = - - = . & s >.8Xy.y.x g 0 -.F.T.@XI.F.d.h.Z.k.y.Y.Y.@XtX+Xh.G.p.^ +X+XOX",
"|.|.DXDXDXaXsXqX9.,.{ y : $ + + $ o 7 Y =.;.5.o.Z.k.S.nXnXuX0X$XG.5Xj.! d.T.4XR.J.F.<.<.J.@Xh.tX-Xb.",
"|.|.cXNXSXDXAXCX:X-X` % @ + + + o & s >.=.+.h.H.C.Z.H.h.c.m.<Xm.n.uX@X#.#.k.P.j.Y.F.+. ...Y.-XY.-Xl.",
"DXmXDXcXDXSXCXCXlXJ.e X & % 3 : < o M ~.g.=XJ.h.h.F.tXyX-Xx.OX3XXX0XF.h.k.4XZ.! ;X7X;XG.h.P.C.d.Q W ",
"MXmXAXNXDXSXDXCXbX-Xc.| 8 d R I z M &._.g.#.n ..h...6.+Xn.l.p.>XrX0Xo.n.R.j.m g t +...h.C.Q t m 3.G.",
"`.`.bXVXDXNXAXMXZXeXuXR.Z A N./.Q.Q.L.-.b n Y.6.( ..F 1.uXnXOXeX<Xx.o.W ^ R.d.^ 7.C.J.8.+.n ! I.vXlX",
"*X%X1XjXcXcXDXSXmX1X2Xm.U.^.E.Q.B.L._.:.) @.f.nX+X..[ 6.i.p.x.[.3.t O Q ^ d.4XY.-XG.7.<.G.7XuX@XeXOX",
"&XjX>XMXAXSXdXDXSX X}.m.@.;.L.M.u.u.M.u.Y.iX5.+X;X-XJ...<.3.4.vXmX( n 9X@Xk.T...Q F.XXXX5X+X5XwXqXjX",
"sXzX{.*XjXcXaXdXSXdX.X2Xi.0 Z c k 9 G A.;.R.yXv.;XyXtXf.h.I.1.[.0X-X9XiXP.@.j.R.F.0XyXmXeX#XnXyXjXjX",
"VXCX1XjX*XbXBXkXSXVX,XBX3.O g q k 9 5 g U.3XuXiX-X7X;Xc.C.yX+. .o.( F.Y.#.Z.iXv.G.#X$X#Xb.'.&Xx.oX'.",
"NXDXDXCXfXjXBX*X XVXBXzXuX..0 M R 6 X g P.9XI.i...<.C.~.~.7X+... .Y.^.7X4X;.j.1.6.XX9.'.1XoX.Xa.qXyX",
"DXDXDXmX*X{.VXBXVXVXzX&XyXtX&.T T Y *.#.j.m.i.P.6.F ~ [ 0 Q =.+.g.~.T.U.j.^ ;.<.b.oXzXVX&X{.1XCXqX'.",
"MXgX2X%Xz._ &XBXBXVXVXlXG.C.=.B R N.L.=.! @.i.i.I.c.H.7.=.,.7.U.g.) d.^ ! 5.h.5.XXlXyXjXBXAXfXlX$Xc.",
"a.OXvXvX<X<X%X{.kXBXbXlX+XJ.W.N } L.:.A D +.P.@XwXP.g.,.=.S.X.X.j.P.#.! O.O.] P.@XG.0X'.{.eXjXyX@X .",
"p.l.b.b.z.b.`._ _ a..X9.2.t.C.b G :.$.' ,.H.Y.I.n.@. .` P >.G ~ d.9XP.G } :.=.A.h.<.l.2.z.`.#X<X .w "
};
